<svg width="32" height="31" viewBox="0 0 32 31" fill="none" xmlns="http://www.w3.org/2000/svg">
<path d="M3.45785 23.9724L2 29L7.67365 26.5796M3.45785 23.9724L7.67365 26.5796M3.45785 23.9724L25.2243 1.8585L29.4401 4.46566L7.67365 26.5796M4.83676 24.1927L25.8293 2.86509M6.32469 25.1129L27.3173 3.78526M5.58073 24.6528L26.5733 3.32517M7.06866 25.573L28.0612 4.24535M29.2467 4.66223C29.5007 4.40409 29.6978 4.11476 29.8266 3.81076C29.9554 3.50677 30.0135 3.19405 29.9974 2.89047C29.9813 2.58689 29.8914 2.2984 29.7329 2.04145C29.5744 1.78451 29.3504 1.56415 29.0736 1.39297C28.7967 1.22178 28.4726 1.10311 28.1196 1.04374C27.7666 0.984365 27.3918 0.98545 27.0164 1.04693C26.641 1.10841 26.2724 1.22909 25.9317 1.40207C25.5911 1.57504 25.2849 1.79693 25.0309 2.05507L29.2467 4.66223Z" stroke="black" stroke-width="2"/>
</svg>
